<?xml version="1.0" standalone="no"?><!DOCTYPE svg PUBLIC "-//W3C//DTD SVG 1.1//EN" "http://www.w3.org/Graphics/SVG/1.1/DTD/svg11.dtd"><svg t="1538650573492" class="icon" fill="white" style="" viewBox="0 0 1025 1024" version="1.1" xmlns="http://www.w3.org/2000/svg" p-id="2392" xmlns:xlink="http://www.w3.org/1999/xlink" width="200.1953125" height="200"><defs><style type="text/css"></style></defs><path d="M495.733 425.922c-38.556 0-69.813 31.254-69.813 69.805 0 38.549 31.255 69.801 69.813 69.801 38.557 0 69.817-31.252 69.817-69.801 0-38.552-31.259-69.805-69.817-69.805zM529.303 468.955c-7.877-9.86-19.968-16.183-33.571-16.183-14.542 0-27.366 7.241-35.141 18.292l-8.811-6.137c9.713-13.834 25.762-22.894 43.952-22.894 16.975 0 32.092 7.897 41.937 20.197l-8.366 6.724z" p-id="2393"></path><path d="M805.556 387.984c-16.047-37.94-39.018-72.011-68.273-101.267-29.257-29.256-63.327-52.226-101.267-68.272-39.287-16.616-81.011-25.043-124.016-25.043-43.005 0-84.73 8.425-124.016 25.043-37.94 16.047-72.011 39.018-101.267 68.273-29.256 29.256-52.226 63.327-68.273 101.267-16.616 39.286-25.043 81.011-25.043 124.016s8.425 84.73 25.043 124.016c16.047 37.94 39.017 72.011 68.273 101.267s63.327 52.226 101.267 68.273c39.286 16.616 81.011 25.043 124.016 25.043s84.729-8.425 124.016-25.043c37.94-16.047 72.011-39.018 101.267-68.273 29.256-29.256 52.226-63.327 68.273-101.267 16.616-39.286 25.043-81.011 25.043-124.016 0-43.005-8.425-84.73-25.043-124.016zM616.829 604.744l-10.491 11.828c-4.197 4.198-11.887 3.861-16.086-0.333l-42.982-43.65c-0.314-0.304-0.438-0.712-0.706-1.045-14.525 9.763-32.011 15.466-50.835 15.466-50.419 0-91.294-40.868-91.294-91.282 0-50.424 40.875-91.285 91.294-91.285s91.294 40.861 91.294 91.285c0 18.415-5.498 35.531-14.88 49.865 0.14 0.138 0.33 0.181 0.467 0.317l43.318 43.313c4.198 4.195 5.087 11.328 0.9 15.522z" p-id="2394"></path></svg>